<svg width="26" height="23" viewBox="0 0 26 23" fill="none" xmlns="http://www.w3.org/2000/svg">
<path d="M25.8411 21.2674L1.69039 0.409947C1.47878 0.227283 1.1359 0.227283 0.924297 0.409947L0.158461 1.07139C-0.0531458 1.25406 -0.0531458 1.55027 0.158461 1.73297L4.63775 5.60149C2.49903 7.06315 0.88225 9.05574 0.0256164 11.3573C-0.00876275 11.45 -0.00876275 11.5505 0.0256164 11.6433C1.86802 16.5945 7.08212 19.9208 12.9998 19.9208C15.3145 19.9208 17.5402 19.4143 19.5276 18.4609L24.3092 22.5905C24.5208 22.7731 24.8637 22.7731 25.0753 22.5905L25.8411 21.929C26.0527 21.7464 26.0527 21.4502 25.8411 21.2674ZM12.9998 18.0495C8.81824 18.0495 5.41643 15.1116 5.41643 11.5003C5.41643 10.0787 5.95771 8.70743 6.93272 7.58347L9.28771 9.61737C8.89791 10.1826 8.66645 10.821 8.66645 11.5002C8.66645 13.5638 10.6104 15.2427 12.9998 15.2427C13.7862 15.2427 14.5256 15.0427 15.1799 14.7061L17.5349 16.74C16.2335 17.5821 14.6458 18.0495 12.9998 18.0495Z" fill="#BAC0C5"/>
<path d="M12.5432 8.04769C12.4581 8.22268 12.5041 8.42552 12.6596 8.55981L16.4047 11.7942C16.5084 11.8838 16.647 11.9313 16.7877 11.9313C16.8586 11.9313 16.93 11.9194 16.9977 11.8948C17.2008 11.8207 17.332 11.6485 17.3294 11.458C17.3024 9.40817 15.4224 7.78459 13.0489 7.76126C12.8331 7.78135 12.6289 7.87226 12.5432 8.04769Z" fill="#BAC0C5"/>
<path d="M9.12111 5.504C9.28351 5.6447 9.53158 5.68035 9.7379 5.59536C10.7726 5.16775 11.8702 4.95075 13.0001 4.95075C17.1817 4.95075 20.5835 7.88872 20.5835 11.5C20.5835 12.4758 20.3322 13.4238 19.8371 14.3174C19.7382 14.4964 19.7805 14.7098 19.9429 14.8501L21.8202 16.4714C21.9218 16.5591 22.0593 16.6085 22.2032 16.6085C22.2037 16.6085 22.2043 16.6085 22.2043 16.6085C22.3487 16.608 22.4868 16.5582 22.5883 16.47C24.1277 15.1274 25.2988 13.4581 25.9743 11.643C26.0087 11.5503 26.0087 11.4498 25.9743 11.357C24.1319 6.40579 18.9178 3.07951 13.0001 3.07951C11.3762 3.07951 9.78025 3.32893 8.25625 3.82144C8.08379 3.87718 7.95577 4.00463 7.91662 4.16041C7.87747 4.31575 7.93302 4.47793 8.06313 4.59029L9.12111 5.504Z" fill="#BAC0C5"/>
</svg>