<svg width="92" height="93" viewBox="0 0 92 93" fill="none" xmlns="http://www.w3.org/2000/svg">
<path d="M45.5 93C71.1812 93 92 72.1812 92 46.5C92 20.8188 71.1812 0 45.5 0C19.8188 0 -1 20.8188 -1 46.5C-1 72.1812 19.8188 93 45.5 93Z" fill="#FF615C"/>
<path d="M45.5 82.6349C65.8034 82.6349 82.2626 66.4568 82.2626 46.5C82.2626 26.5433 65.8034 10.3651 45.5 10.3651C25.1965 10.3651 8.7373 26.5433 8.7373 46.5C8.7373 66.4568 25.1965 82.6349 45.5 82.6349Z" fill="#FF615C"/>
<path d="M45.2043 -12.3253V45.3556L0.120605 100.872L80.8174 116.53L141.301 29.3345L45.2043 -12.3253Z" fill="#3EC294"/>
</svg>
