<svg width="47" height="47" viewBox="0 0 47 47" fill="none" xmlns="http://www.w3.org/2000/svg">
    <path d="M23.5 46C35.9264 46 46 35.9264 46 23.5C46 11.0736 35.9264 1 23.5 1C11.0736 1 1 11.0736 1 23.5C1 35.9264 11.0736 46 23.5 46Z" fill="#F4F6F8" stroke="#D1D0E7" stroke-width="0.584416"/>
    <path fill-rule="evenodd" clip-rule="evenodd" d="M28.124 19.4839C28.0312 19.6978 27.8273 19.8341 27.6028 19.8341H25.3116V27.6042C25.3116 27.9341 25.055 28.2019 24.7388 28.2019H22.4476C22.1314 28.2019 21.8748 27.9341 21.8748 27.6042V19.8341H19.5836C19.3591 19.8341 19.1552 19.6966 19.0624 19.4839C18.9684 19.2699 19.0051 19.02 19.1529 18.8431L23.1625 14.0615C23.2713 13.9312 23.4282 13.8571 23.5932 13.8571C23.7582 13.8571 23.9151 13.9324 24.0239 14.0615L28.0335 18.8431C28.1825 19.0188 28.2168 19.2699 28.124 19.4839Z" fill="#B3B3B3"/>
    <path fill-rule="evenodd" clip-rule="evenodd" d="M30.2202 27.0065V30.5927H17.3631V27.0065H15.0254V31.7881C15.0254 32.4491 15.549 32.9834 16.1942 32.9834H31.389C32.0354 32.9834 32.5579 32.4491 32.5579 31.7881V27.0065H30.2202Z" fill="#B3B3B3"/>
</svg>